<?xml version="1.0" encoding="UTF-8" standalone="no"?>
<svg
   xmlns:dc="http://purl.org/dc/elements/1.1/"
   xmlns:cc="http://creativecommons.org/ns#"
   xmlns:rdf="http://www.w3.org/1999/02/22-rdf-syntax-ns#"
   xmlns:svg="http://www.w3.org/2000/svg"
   xmlns="http://www.w3.org/2000/svg"
   viewBox="0 0 1066.6667 1066.6667"
   height="1066.6667"
   width="1066.6667"
   xml:space="preserve"
   id="svg2"
   version="1.1"><metadata
     id="metadata8"><rdf:RDF><cc:Work
         rdf:about=""><dc:format>image/svg+xml</dc:format><dc:type
           rdf:resource="http://purl.org/dc/dcmitype/StillImage" /></cc:Work></rdf:RDF></metadata><defs
     id="defs6"><clipPath
       id="clipPath18"
       clipPathUnits="userSpaceOnUse"><path
         id="path16"
         d="M 0,800 H 800 V 0 H 0 Z" /></clipPath></defs><g
     transform="matrix(1.3333333,0,0,-1.3333333,0,1066.6667)"
     id="g10"><g
       id="g12"><g
         clip-path="url(#clipPath18)"
         id="g14"><g
           transform="translate(515.6326,411.6854)"
           id="g20"><path
             id="path22"
             style="fill:none;stroke:#231f20;stroke-width:8;stroke-linecap:butt;stroke-linejoin:miter;stroke-miterlimit:10;stroke-dasharray:none;stroke-opacity:1"
             d="M 0,0 C 107.248,0 98.553,99.277 275.367,99.277" /></g><g
           transform="translate(12,510.8631)"
           id="g24"><path
             id="path26"
             style="fill:none;stroke:#231f20;stroke-width:8;stroke-linecap:butt;stroke-linejoin:miter;stroke-miterlimit:10;stroke-dasharray:none;stroke-opacity:1"
             d="M 0,0 H 150.003" /></g><g
           transform="translate(12,413.8599)"
           id="g28"><path
             id="path30"
             style="fill:none;stroke:#231f20;stroke-width:8;stroke-linecap:butt;stroke-linejoin:miter;stroke-miterlimit:10;stroke-dasharray:none;stroke-opacity:1"
             d="M 0,0 H 150.003" /></g><g
           transform="translate(12,316.8566)"
           id="g32"><path
             id="path34"
             style="fill:none;stroke:#231f20;stroke-width:8;stroke-linecap:butt;stroke-linejoin:miter;stroke-miterlimit:10;stroke-dasharray:none;stroke-opacity:1"
             d="M 0,0 H 150.003" /></g><g
           transform="translate(177.9621,510.8631)"
           id="g36"><path
             id="path38"
             style="fill:#231f20;fill-opacity:1;fill-rule:nonzero;stroke:none"
             d="m 0,0 c 0,8.814 -7.145,15.959 -15.959,15.959 -8.814,0 -15.96,-7.145 -15.96,-15.959 0,-8.814 7.146,-15.959 15.96,-15.959 C -7.145,-15.959 0,-8.814 0,0" /></g><g
           transform="translate(177.9621,510.8631)"
           id="g40"><path
             id="path42"
             style="fill:none;stroke:#231f20;stroke-width:1;stroke-linecap:butt;stroke-linejoin:miter;stroke-miterlimit:10;stroke-dasharray:none;stroke-opacity:1"
             d="m 0,0 c 0,8.814 -7.145,15.959 -15.959,15.959 -8.814,0 -15.96,-7.145 -15.96,-15.959 0,-8.814 7.146,-15.959 15.96,-15.959 C -7.145,-15.959 0,-8.814 0,0 Z" /></g><g
           transform="translate(177.9621,413.8599)"
           id="g44"><path
             id="path46"
             style="fill:#231f20;fill-opacity:1;fill-rule:nonzero;stroke:none"
             d="m 0,0 c 0,8.814 -7.145,15.959 -15.959,15.959 -8.814,0 -15.96,-7.145 -15.96,-15.959 0,-8.814 7.146,-15.959 15.96,-15.959 C -7.145,-15.959 0,-8.814 0,0" /></g><g
           transform="translate(177.9621,413.8599)"
           id="g48"><path
             id="path50"
             style="fill:none;stroke:#231f20;stroke-width:1;stroke-linecap:butt;stroke-linejoin:miter;stroke-miterlimit:10;stroke-dasharray:none;stroke-opacity:1"
             d="m 0,0 c 0,8.814 -7.145,15.959 -15.959,15.959 -8.814,0 -15.96,-7.145 -15.96,-15.959 0,-8.814 7.146,-15.959 15.96,-15.959 C -7.145,-15.959 0,-8.814 0,0 Z" /></g><g
           transform="translate(177.9621,316.8566)"
           id="g52"><path
             id="path54"
             style="fill:#231f20;fill-opacity:1;fill-rule:nonzero;stroke:none"
             d="m 0,0 c 0,8.814 -7.145,15.959 -15.959,15.959 -8.814,0 -15.96,-7.145 -15.96,-15.959 0,-8.814 7.146,-15.959 15.96,-15.959 C -7.145,-15.959 0,-8.814 0,0" /></g><g
           transform="translate(177.9621,316.8566)"
           id="g56"><path
             id="path58"
             style="fill:none;stroke:#231f20;stroke-width:1;stroke-linecap:butt;stroke-linejoin:miter;stroke-miterlimit:10;stroke-dasharray:none;stroke-opacity:1"
             d="m 0,0 c 0,8.814 -7.145,15.959 -15.959,15.959 -8.814,0 -15.96,-7.145 -15.96,-15.959 0,-8.814 7.146,-15.959 15.96,-15.959 C -7.145,-15.959 0,-8.814 0,0 Z" /></g><g
           transform="translate(531.5919,411.6854)"
           id="g60"><path
             id="path62"
             style="fill:#231f20;fill-opacity:1;fill-rule:nonzero;stroke:none"
             d="m 0,0 c 0,8.814 -7.145,15.959 -15.959,15.959 -8.814,0 -15.96,-7.145 -15.96,-15.959 0,-8.814 7.146,-15.959 15.96,-15.959 C -7.145,-15.959 0,-8.814 0,0" /></g><g
           transform="translate(531.5919,411.6854)"
           id="g64"><path
             id="path66"
             style="fill:none;stroke:#231f20;stroke-width:1;stroke-linecap:butt;stroke-linejoin:miter;stroke-miterlimit:10;stroke-dasharray:none;stroke-opacity:1"
             d="m 0,0 c 0,8.814 -7.145,15.959 -15.959,15.959 -8.814,0 -15.96,-7.145 -15.96,-15.959 0,-8.814 7.146,-15.959 15.96,-15.959 C -7.145,-15.959 0,-8.814 0,0 Z" /></g><g
           transform="translate(515.6326,261.6945)"
           id="g68"><path
             id="path70"
             style="fill:#ffffff;fill-opacity:1;fill-rule:nonzero;stroke:none"
             d="m 0,0 c 0,-0.006 -0.005,-0.011 -0.011,-0.011 h -353.607 c -0.007,0 -0.012,0.005 -0.012,0.011 v 304.331 c 0,0.006 0.005,0.011 0.012,0.011 H -0.011 c 0.006,0 0.011,-0.005 0.011,-0.011 z" /></g><g
           transform="translate(515.6326,261.6945)"
           id="g72"><path
             id="path74"
             style="fill:none;stroke:#231f20;stroke-width:8;stroke-linecap:butt;stroke-linejoin:miter;stroke-miterlimit:10;stroke-dasharray:none;stroke-opacity:1"
             d="m 0,0 c 0,-0.006 -0.005,-0.011 -0.011,-0.011 h -353.607 c -0.007,0 -0.012,0.005 -0.012,0.011 v 304.331 c 0,0.006 0.005,0.011 0.012,0.011 H -0.011 c 0.006,0 0.011,-0.005 0.011,-0.011 z" /></g></g></g></g></svg>