<?xml version="1.0" encoding="UTF-8" standalone="no"?>
<svg
   xmlns:dc="http://purl.org/dc/elements/1.1/"
   xmlns:cc="http://creativecommons.org/ns#"
   xmlns:rdf="http://www.w3.org/1999/02/22-rdf-syntax-ns#"
   xmlns:svg="http://www.w3.org/2000/svg"
   xmlns="http://www.w3.org/2000/svg"
   viewBox="0 0 1066.6667 1066.6667"
   height="1066.6667"
   width="1066.6667"
   xml:space="preserve"
   id="svg2"
   version="1.1"><metadata
     id="metadata8"><rdf:RDF><cc:Work
         rdf:about=""><dc:format>image/svg+xml</dc:format><dc:type
           rdf:resource="http://purl.org/dc/dcmitype/StillImage" /></cc:Work></rdf:RDF></metadata><defs
     id="defs6"><clipPath
       id="clipPath26"
       clipPathUnits="userSpaceOnUse"><path
         id="path24"
         d="M 0,800 H 800 V 0 H 0 Z" /></clipPath></defs><g
     transform="matrix(1.3333333,0,0,-1.3333333,0,1066.6667)"
     id="g10"><g
       transform="translate(185.5558,409.0821)"
       id="g12"><path
         id="path14"
         style="fill:none;stroke:#231f20;stroke-width:20;stroke-linecap:round;stroke-linejoin:round;stroke-miterlimit:10;stroke-dasharray:none;stroke-opacity:1"
         d="M 0,0 H 373.379 L 238.631,134.748" /></g><g
       transform="translate(185.5558,409.0821)"
       id="g16"><path
         id="path18"
         style="fill:none;stroke:#231f20;stroke-width:20;stroke-linecap:round;stroke-linejoin:round;stroke-miterlimit:10;stroke-dasharray:none;stroke-opacity:1"
         d="M 0,0 H 373.379 L 238.631,-134.748" /></g><g
       id="g20"><g
         clip-path="url(#clipPath26)"
         id="g22"><g
           transform="translate(400,793)"
           id="g28"><path
             id="path30"
             style="fill:#231f20;fill-opacity:1;fill-rule:nonzero;stroke:none"
             d="m 0,0 c -216.816,0 -392.58,-175.764 -392.58,-392.58 0,-216.816 175.764,-392.58 392.58,-392.58 216.816,0 392.58,175.764 392.58,392.58 C 392.58,-175.764 216.816,0 0,0 m 0,-20 c 50.307,0 99.098,-9.848 145.019,-29.271 44.364,-18.764 84.211,-45.632 118.435,-79.855 34.223,-34.224 61.091,-74.071 79.855,-118.435 19.423,-45.921 29.271,-94.712 29.271,-145.019 0,-50.307 -9.848,-99.098 -29.271,-145.019 -18.764,-44.364 -45.632,-84.211 -79.855,-118.435 -34.224,-34.223 -74.071,-61.091 -118.435,-79.855 C 99.098,-755.312 50.307,-765.16 0,-765.16 c -50.307,0 -99.098,9.848 -145.019,29.271 -44.364,18.764 -84.211,45.632 -118.435,79.855 -34.223,34.224 -61.091,74.071 -79.855,118.435 -19.423,45.921 -29.271,94.712 -29.271,145.019 0,50.307 9.848,99.098 29.271,145.019 18.764,44.364 45.632,84.211 79.855,118.435 34.224,34.223 74.071,61.091 118.435,79.855 C -99.098,-29.848 -50.307,-20 0,-20" /></g></g></g></g></svg>