<?xml version="1.0" encoding="UTF-8" standalone="no"?>
<svg
   xmlns:dc="http://purl.org/dc/elements/1.1/"
   xmlns:cc="http://creativecommons.org/ns#"
   xmlns:rdf="http://www.w3.org/1999/02/22-rdf-syntax-ns#"
   xmlns:svg="http://www.w3.org/2000/svg"
   xmlns="http://www.w3.org/2000/svg"
   viewBox="0 0 1066.6667 1066.6667"
   height="1066.6667"
   width="1066.6667"
   xml:space="preserve"
   id="svg2"
   version="1.1"><metadata
     id="metadata8"><rdf:RDF><cc:Work
         rdf:about=""><dc:format>image/svg+xml</dc:format><dc:type
           rdf:resource="http://purl.org/dc/dcmitype/StillImage" /></cc:Work></rdf:RDF></metadata><defs
     id="defs6"><clipPath
       id="clipPath18"
       clipPathUnits="userSpaceOnUse"><path
         id="path16"
         d="M 0,800 H 800 V 0 H 0 Z" /></clipPath></defs><g
     transform="matrix(1.3333333,0,0,-1.3333333,0,1066.6667)"
     id="g10"><g
       id="g12"><g
         clip-path="url(#clipPath18)"
         id="g14"><g
           transform="translate(477.4163,642.0817)"
           id="g20"><path
             id="path22"
             style="fill:none;stroke:#231f20;stroke-width:10;stroke-linecap:butt;stroke-linejoin:round;stroke-miterlimit:10;stroke-dasharray:none;stroke-opacity:1"
             d="m 0,0 c 0,42.374 -34.351,76.725 -76.725,76.725 -42.374,0 -76.725,-34.351 -76.725,-76.725 0,-42.374 34.351,-76.725 76.725,-76.725 C -34.351,-76.725 0,-42.374 0,0 Z" /></g><g
           transform="translate(542.3374,402.4638)"
           id="g24"><path
             id="path26"
             style="fill:none;stroke:#231f20;stroke-width:10;stroke-linecap:butt;stroke-linejoin:round;stroke-miterlimit:10;stroke-dasharray:none;stroke-opacity:1"
             d="m 0,0 v 108.595 l -87.348,21.247 -54.298,-51.937 -54.298,51.937 -87.348,-21.247 V 0" /></g><g
           transform="translate(726.0789,383.9227)"
           id="g28"><path
             id="path30"
             style="fill:none;stroke:#231f20;stroke-width:10;stroke-linecap:butt;stroke-linejoin:round;stroke-miterlimit:10;stroke-dasharray:none;stroke-opacity:1"
             d="m 0,0 c 0,42.374 -34.351,76.725 -76.725,76.725 -42.374,0 -76.725,-34.351 -76.725,-76.725 0,-42.374 34.351,-76.725 76.725,-76.725 C -34.351,-76.725 0,-42.374 0,0 Z" /></g><g
           transform="translate(791,144.3049)"
           id="g32"><path
             id="path34"
             style="fill:none;stroke:#231f20;stroke-width:10;stroke-linecap:butt;stroke-linejoin:round;stroke-miterlimit:10;stroke-dasharray:none;stroke-opacity:1"
             d="m 0,0 v 108.595 l -87.348,21.247 -54.298,-51.937 -54.298,51.937 -87.348,-21.247 V 0" /></g><g
           transform="translate(227.371,383.9227)"
           id="g36"><path
             id="path38"
             style="fill:none;stroke:#231f20;stroke-width:10;stroke-linecap:butt;stroke-linejoin:round;stroke-miterlimit:10;stroke-dasharray:none;stroke-opacity:1"
             d="m 0,0 c 0,42.374 -34.351,76.725 -76.725,76.725 -42.374,0 -76.725,-34.351 -76.725,-76.725 0,-42.374 34.351,-76.725 76.725,-76.725 C -34.351,-76.725 0,-42.374 0,0 Z" /></g><g
           transform="translate(292.2921,144.3049)"
           id="g40"><path
             id="path42"
             style="fill:none;stroke:#231f20;stroke-width:10;stroke-linecap:butt;stroke-linejoin:round;stroke-miterlimit:10;stroke-dasharray:none;stroke-opacity:1"
             d="m 0,0 v 108.595 l -87.348,21.247 -54.298,-51.937 -54.298,51.937 -87.348,-21.247 V 0" /></g></g></g></g></svg>