<svg xmlns="http://www.w3.org/2000/svg" xmlns:xlink="http://www.w3.org/1999/xlink" version="1.1" x="0px" y="0px" viewBox="0 0 100 100" style="enable-background:new 0 0 100 100;" xml:space="preserve"><g><g><rect x="48.1" y="28.8" width="3.9" height="42.6"></rect></g><g><path d="M50,92.7c-6.4,0-11.6-5.2-11.6-11.6c0-6.4,5.2-11.6,11.6-11.6s11.6,5.2,11.6,11.6C61.6,87.5,56.4,92.7,50,92.7z M50,73.3    c-4.3,0-7.7,3.5-7.7,7.7c0,4.2,3.5,7.8,7.7,7.8s7.7-3.5,7.7-7.7C57.7,76.8,54.3,73.3,50,73.3z"></path></g><g><path d="M15.2,92.7c-6.4,0-11.6-5.2-11.6-11.6c0-6.4,5.2-11.6,11.6-11.6s11.6,5.2,11.6,11.6C26.8,87.5,21.6,92.7,15.2,92.7z     M15.2,73.3c-4.3,0-7.7,3.5-7.7,7.7c0,4.2,3.5,7.8,7.7,7.8s7.7-3.5,7.7-7.7C22.9,76.8,19.4,73.3,15.2,73.3z"></path></g><g><path d="M50,30.7c-6.4,0-11.6-5.2-11.6-11.6S43.6,7.5,50,7.5s11.6,5.2,11.6,11.6S56.4,30.7,50,30.7z M50,11.4    c-4.3,0-7.7,3.5-7.7,7.7s3.5,7.7,7.7,7.7s7.7-3.5,7.7-7.7S54.3,11.4,50,11.4z"></path></g><g><path d="M17.1,71.4h-3.8v-9.7c0-7.5,6.1-13.5,13.5-13.5H50V52H26.8c-5.3,0-9.7,4.3-9.7,9.7V71.4z"></path></g><g><path d="M84.8,92.7c-6.4,0-11.6-5.2-11.6-11.6c0-6.4,5.2-11.6,11.6-11.6c6.4,0,11.6,5.2,11.6,11.6C96.5,87.5,91.2,92.7,84.8,92.7z     M84.8,73.3c-4.3,0-7.7,3.5-7.7,7.7c0,4.2,3.5,7.8,7.7,7.8c4.3,0,7.7-3.5,7.7-7.7C92.6,76.8,89.1,73.3,84.8,73.3z"></path></g><g><path d="M86.8,71.4h-3.9v-9.7c0-5.3-4.3-9.7-9.7-9.7H50v-3.9h23.2c7.5,0,13.5,6.1,13.5,13.5L86.8,71.4L86.8,71.4z"></path></g></g></svg>