<?xml version="1.0" encoding="UTF-8" standalone="no"?>
<svg
   xmlns:dc="http://purl.org/dc/elements/1.1/"
   xmlns:cc="http://creativecommons.org/ns#"
   xmlns:rdf="http://www.w3.org/1999/02/22-rdf-syntax-ns#"
   xmlns:svg="http://www.w3.org/2000/svg"
   xmlns="http://www.w3.org/2000/svg"
   viewBox="0 0 1066.6667 1066.6667"
   height="1066.6667"
   width="1066.6667"
   xml:space="preserve"
   id="svg2"
   version="1.1"><metadata
     id="metadata8"><rdf:RDF><cc:Work
         rdf:about=""><dc:format>image/svg+xml</dc:format><dc:type
           rdf:resource="http://purl.org/dc/dcmitype/StillImage" /></cc:Work></rdf:RDF></metadata><defs
     id="defs6"><clipPath
       id="clipPath18"
       clipPathUnits="userSpaceOnUse"><path
         id="path16"
         d="M 0,800 H 800 V 0 H 0 Z" /></clipPath></defs><g
     transform="matrix(1.3333333,0,0,-1.3333333,0,1066.6667)"
     id="g10"><g
       id="g12"><g
         clip-path="url(#clipPath18)"
         id="g14"><g
           transform="translate(444.5477,200.5584)"
           id="g20"><path
             id="path22"
             style="fill:none;stroke:#231f20;stroke-width:20;stroke-linecap:butt;stroke-linejoin:miter;stroke-miterlimit:10;stroke-dasharray:none;stroke-opacity:1"
             d="m 0,0 c 24.603,-24.603 24.603,-64.492 0,-89.095 -24.603,-24.603 -64.492,-24.603 -89.095,0 -24.603,24.603 -24.603,64.492 0,89.095 C -64.492,24.603 -24.603,24.603 0,0 Z" /></g><g
           transform="translate(242.5805,314.1052)"
           id="g24"><path
             id="path26"
             style="fill:none;stroke:#231f20;stroke-width:20;stroke-linecap:round;stroke-linejoin:miter;stroke-miterlimit:10;stroke-dasharray:none;stroke-opacity:1"
             d="M 0,0 C 87.313,87.313 228.876,87.313 316.189,0" /></g><g
           transform="translate(156.8844,399.8012)"
           id="g28"><path
             id="path30"
             style="fill:none;stroke:#231f20;stroke-width:20;stroke-linecap:round;stroke-linejoin:miter;stroke-miterlimit:10;stroke-dasharray:none;stroke-opacity:1"
             d="M 0,0 C 64.806,64.806 148.993,98.42 233.904,100.84" /></g><g
           transform="translate(390.7884,500.6417)"
           id="g32"><path
             id="path34"
             style="fill:none;stroke:#231f20;stroke-width:20;stroke-linecap:round;stroke-linejoin:miter;stroke-miterlimit:10;stroke-dasharray:none;stroke-opacity:1"
             d="M 0,0 C 91.5,2.609 183.842,-31.005 253.677,-100.84" /></g><g
           transform="translate(71.1883,485.4973)"
           id="g36"><path
             id="path38"
             style="fill:none;stroke:#231f20;stroke-width:20;stroke-linecap:round;stroke-linejoin:miter;stroke-miterlimit:10;stroke-dasharray:none;stroke-opacity:1"
             d="M 0,0 C 88.599,88.599 203.999,134.06 320.103,136.384" /></g><g
           transform="translate(391.2917,621.8812)"
           id="g40"><path
             id="path42"
             style="fill:none;stroke:#231f20;stroke-width:20;stroke-linecap:round;stroke-linejoin:miter;stroke-miterlimit:10;stroke-dasharray:none;stroke-opacity:1"
             d="M 0,0 C 122.359,2.449 245.498,-43.012 338.87,-136.384" /></g></g></g></g></svg>